<!-- Generated by IcoMoon.io -->
<svg version="1.1" xmlns="http://www.w3.org/2000/svg" width="32" height="32" viewBox="0 0 32 32">
<title>checkbox</title>
<path fill="#fd9222" d="M9.6 0h12.8c5.302 0 9.6 4.298 9.6 9.6v12.8c0 5.302-4.298 9.6-9.6 9.6h-12.8c-5.302 0-9.6-4.298-9.6-9.6v-12.8c0-5.302 4.298-9.6 9.6-9.6z"></path>
<path fill="#fff" d="M14.318 23.607c0.697 0 1.225-0.268 1.582-0.803l7.724-11.64c0.128-0.19 0.223-0.377 0.285-0.561 0.061-0.19 0.092-0.371 0.092-0.544 0-0.48-0.167-0.876-0.502-1.188-0.329-0.318-0.736-0.477-1.222-0.477-0.335 0-0.619 0.067-0.854 0.201-0.229 0.128-0.446 0.351-0.653 0.669l-6.485 10.184-3.247-3.891c-0.351-0.407-0.792-0.611-1.322-0.611-0.497 0-0.907 0.159-1.23 0.477s-0.485 0.717-0.485 1.197c0 0.218 0.033 0.424 0.1 0.619 0.073 0.19 0.204 0.388 0.393 0.594l4.31 5.080c0.396 0.463 0.901 0.695 1.515 0.695z"></path>
</svg>
